<svg width="24" height="24" viewBox="0 0 24 24" fill="none" xmlns="http://www.w3.org/2000/svg">
<path d="M14.4979 11.9914L19.306 7.16524C19.6412 6.82877 19.825 6.38285 19.825 5.91057C19.825 5.4383 19.6412 4.99237 19.306 4.6559C18.6376 3.98701 17.4765 3.98701 16.8081 4.6559L12 9.48405L7.18988 4.6559C6.52148 3.98701 5.36035 3.98701 4.69194 4.6559C4.35875 4.99237 4.17499 5.4383 4.17499 5.91057C4.17499 6.38285 4.35875 6.82877 4.69194 7.16524L9.50003 11.9914L4.69194 16.8175C4.35875 17.154 4.17499 17.5999 4.17499 18.0722C4.17499 18.5444 4.35875 18.9904 4.69194 19.3268C5.36035 19.9957 6.52148 19.9957 7.18988 19.3268L12 14.4987L16.8081 19.3268C17.1433 19.6613 17.5855 19.8457 18.0581 19.8457C18.5306 19.8457 18.9728 19.6613 19.306 19.3268C19.6412 18.9904 19.825 18.5444 19.825 18.0722C19.825 17.5999 19.6412 17.154 19.306 16.8175L14.4979 11.9914Z" fill="white"/>
</svg>
