<svg width="24" height="24" viewBox="0 0 24 24" fill="none" xmlns="http://www.w3.org/2000/svg">
<path d="M15.8524 1.44446C16.3006 1.44341 16.6549 1.79157 16.6559 2.25578L16.657 3.04705C19.5647 3.27493 21.4854 5.25628 21.4885 8.29475L21.5 17.1886C21.5042 20.5014 19.4229 22.5397 16.0869 22.545L7.93811 22.5556C4.62293 22.5598 2.51565 20.4729 2.51148 17.1507L2.50001 8.36122C2.49585 5.3027 4.34884 3.32663 7.25652 3.05971L7.25548 2.26844C7.25444 1.80423 7.59836 1.45501 8.05692 1.45501C8.51547 1.45396 8.85939 1.80212 8.86044 2.26633L8.86148 3.00485L15.052 2.99641L15.051 2.25789C15.0499 1.79368 15.3939 1.44552 15.8524 1.44446ZM16.2776 16.4248H16.2672C15.7878 16.4364 15.4032 16.8384 15.4137 17.3237C15.4147 17.809 15.8014 18.2088 16.2808 18.2194C16.7695 18.2183 17.1656 17.8164 17.1645 17.3205C17.1645 16.8246 16.7675 16.4248 16.2776 16.4248ZM7.69007 16.4258C7.21067 16.4469 6.83548 16.8489 6.83652 17.3342C6.85841 17.8195 7.25444 18.1993 7.73384 18.1772C8.20386 18.1561 8.578 17.7541 8.55612 17.2688C8.5457 16.7941 8.15905 16.4248 7.69007 16.4258ZM11.9838 16.4206C11.5044 16.4427 11.1303 16.8436 11.1303 17.3289C11.1522 17.8143 11.5482 18.193 12.0276 18.1719C12.4966 18.1498 12.8718 17.7489 12.8499 17.2625C12.8395 16.7888 12.4528 16.4195 11.9838 16.4206ZM7.68486 12.6277C7.20545 12.6489 6.83131 13.0508 6.83235 13.5361C6.8532 14.0214 7.25027 14.4012 7.72967 14.3791C8.19865 14.358 8.57279 13.956 8.55091 13.4707C8.54049 12.996 8.15488 12.6267 7.68486 12.6277ZM11.9797 12.5908C11.5003 12.6119 11.1251 13.0139 11.1261 13.4992C11.147 13.9845 11.544 14.3633 12.0234 14.3422C12.4924 14.32 12.8666 13.9191 12.8457 13.4338C12.8343 12.959 12.4487 12.5898 11.9797 12.5908ZM16.2735 12.5961C15.7941 12.6066 15.4189 12.997 15.4199 13.4823V13.4939C15.4303 13.9792 15.8264 14.3474 16.3068 14.3369C16.7758 14.3253 17.1499 13.9233 17.1395 13.438C17.1176 12.9738 16.7414 12.595 16.2735 12.5961ZM15.0541 4.62115L8.86356 4.62959L8.8646 5.48311C8.8646 5.93782 8.52173 6.29653 8.06317 6.29653C7.60461 6.29759 7.25965 5.93993 7.25965 5.48522L7.25861 4.67285C5.22636 4.87647 4.10184 6.07076 4.10496 8.35911L4.10601 8.68722L19.8846 8.66612V8.29686C19.8398 6.02856 18.7017 4.83848 16.6591 4.66124L16.6601 5.47361C16.6601 5.92727 16.3068 6.28704 15.8587 6.28704C15.4001 6.28809 15.0552 5.92938 15.0552 5.47572L15.0541 4.62115Z" fill="#B7B7B7"/>
</svg>
