<svg width="24" height="24" viewBox="0 0 24 24" fill="none" xmlns="http://www.w3.org/2000/svg">
<path d="M20.4337 19.3395C21.0217 19.3395 21.5 19.8241 21.5 20.4198C21.5 21.0166 21.0217 21.5 20.4337 21.5H14.4063C13.8183 21.5 13.34 21.0166 13.34 20.4198C13.34 19.8241 13.8183 19.3395 14.4063 19.3395H20.4337ZM16.2537 3.2379L17.8107 4.47472C18.4492 4.97398 18.8748 5.6321 19.0204 6.32427C19.1884 7.08565 19.0092 7.83341 18.5052 8.48019L9.23064 20.4739C8.805 21.0186 8.17774 21.3249 7.50567 21.3363L3.80931 21.3817C3.60769 21.3817 3.43967 21.2455 3.39486 21.0526L2.55478 17.4102C2.40917 16.7408 2.55478 16.0486 2.98042 15.5153L9.55547 7.00508C9.66749 6.86892 9.86911 6.84736 10.0035 6.94835L12.7702 9.14965C12.9494 9.29716 13.1958 9.37659 13.4535 9.34255C14.0023 9.27447 14.372 8.77521 14.3159 8.2419C14.2823 7.96957 14.1479 7.74263 13.9687 7.57243C13.9127 7.52704 11.2804 5.41651 11.2804 5.41651C11.1124 5.28035 11.0788 5.03072 11.2132 4.86165L12.2549 3.51023C13.2182 2.27341 14.8984 2.15994 16.2537 3.2379Z" fill="#B7B7B7"/>
</svg>
