<svg width="27" height="27" viewBox="0 0 27 27" fill="none" xmlns="http://www.w3.org/2000/svg">
<path fill-rule="evenodd" clip-rule="evenodd" d="M15.8583 4.49042C20.7705 4.49042 24.7526 8.47251 24.7526 13.3847C24.7526 18.2968 20.7705 22.2789 15.8583 22.2789C13.4552 22.2789 11.2746 21.3258 9.67401 19.777C9.64506 19.7381 9.61291 19.7007 9.57756 19.6654C9.54222 19.63 9.50488 19.5979 9.46593 19.5689C7.91714 17.9684 6.96407 15.7878 6.96407 13.3847C6.96407 8.47251 10.9462 4.49042 15.8583 4.49042ZM7.48011 20.3486C5.90901 18.4605 4.96407 16.033 4.96407 13.3847C4.96407 7.36794 9.8416 2.49042 15.8583 2.49042C21.8751 2.49042 26.7526 7.36794 26.7526 13.3847C26.7526 19.4014 21.8751 24.2789 15.8583 24.2789C13.21 24.2789 10.7824 23.334 8.89432 21.7628L4.19756 26.4596C3.80703 26.8501 3.17387 26.8501 2.78334 26.4596C2.39282 26.0691 2.39282 25.4359 2.78334 25.0454L7.48011 20.3486ZM20.5685 13.3847C20.5685 13.937 20.1208 14.3847 19.5685 14.3847H16.8586V17.095C16.8586 17.6473 16.4109 18.095 15.8586 18.095C15.3063 18.095 14.8586 17.6473 14.8586 17.095V14.3847H12.1478C11.5956 14.3847 11.1478 13.937 11.1478 13.3847C11.1478 12.8324 11.5956 12.3847 12.1478 12.3847H14.8586V9.67432C14.8586 9.12203 15.3063 8.67432 15.8586 8.67432C16.4109 8.67432 16.8586 9.12203 16.8586 9.67432V12.3847H19.5685C20.1208 12.3847 20.5685 12.8324 20.5685 13.3847Z" fill="#1C8B6A"/>
</svg>
