<svg width="27" height="27" viewBox="0 0 27 27" fill="none" xmlns="http://www.w3.org/2000/svg">
<path fill-rule="evenodd" clip-rule="evenodd" d="M13.3828 4.48859C8.47065 4.48859 4.48856 8.47068 4.48856 13.3828C4.48856 18.295 8.47065 22.2771 13.3828 22.2771C15.7859 22.2771 17.9664 21.3241 19.567 19.7753C19.596 19.7363 19.6281 19.699 19.6635 19.6636C19.6989 19.6282 19.7363 19.596 19.7753 19.567C21.324 17.9665 22.2771 15.7859 22.2771 13.3828C22.2771 8.47068 18.295 4.48859 13.3828 4.48859ZM13.3828 24.2771C16.0311 24.2771 18.4587 23.3322 20.3468 21.761L25.0435 26.4578C25.434 26.8483 26.0672 26.8483 26.4577 26.4578C26.8483 26.0673 26.8483 25.4341 26.4577 25.0436L21.761 20.3468C23.3321 18.4587 24.2771 16.0311 24.2771 13.3828C24.2771 7.36611 19.3995 2.48859 13.3828 2.48859C7.36608 2.48859 2.48856 7.36611 2.48856 13.3828C2.48856 19.3996 7.36608 24.2771 13.3828 24.2771ZM9.67245 12.3826C9.12017 12.3826 8.67245 12.8303 8.67245 13.3826C8.67245 13.9349 9.12017 14.3826 9.67245 14.3826H17.0931C17.6454 14.3826 18.0931 13.9349 18.0931 13.3826C18.0931 12.8303 17.6454 12.3826 17.0931 12.3826H9.67245Z" fill="#1C8B6A"/>
</svg>
